<?xml version="1.0" standalone="no"?>
<!DOCTYPE svg PUBLIC "-//W3C//DTD SVG 20010904//EN"
 "http://www.w3.org/TR/2001/REC-SVG-20010904/DTD/svg10.dtd">
<svg version="1.0" xmlns="http://www.w3.org/2000/svg"
 width="500.000000pt" height="500.000000pt" viewBox="0 0 500.000000 500.000000"
 preserveAspectRatio="xMidYMid meet">

<g transform="translate(0.000000,500.000000) scale(0.100000,-0.100000)"
fill="#000000" stroke="none">
<path d="M1673 4965 c-7 -20 1 -97 21 -195 33 -161 68 -381 61 -388 -3 -4
-280 -7 -615 -6 l-608 1 -3 -36 c-2 -20 -4 -169 -4 -331 l0 -295 57 -31 c79
-41 123 -87 161 -164 l31 -65 7 -455 c4 -250 8 -494 8 -542 l1 -88 569 0 c626
0 598 3 566 -59 -11 -22 -12 -37 -5 -62 6 -19 10 -35 10 -36 0 -2 -255 -4
-567 -6 l-568 -2 568 -3 567 -2 9 -22 c5 -13 12 -37 15 -55 7 -30 5 -32 -61
-67 l-67 -36 -516 -2 c-355 -2 -418 -4 -204 -5 l311 -3 12 -41 c10 -32 10 -51
0 -90 l-13 -49 -310 -3 -311 -2 313 -3 312 -2 0 -25 c0 -27 33 -99 50 -110 5
-3 10 -15 10 -26 0 -18 -11 -19 -342 -21 l-343 -3 351 -5 350 -5 72 -81 c40
-45 72 -84 72 -85 0 -2 -187 -3 -415 -1 -282 2 -415 -1 -415 -8 0 -7 138 -10
424 -10 459 0 458 0 532 -56 30 -23 64 -78 64 -103 0 -8 -150 -12 -517 -13
l-518 -3 515 -5 c451 -4 515 -7 511 -20 -15 -62 -12 -100 8 -129 l22 -31 -528
-2 -528 -3 555 -5 555 -5 50 -25 c48 -23 127 -94 139 -125 5 -13 -65 -15 -639
-15 -642 0 -645 0 -645 -20 0 -34 39 -140 82 -223 54 -104 161 -205 280 -264
46 -24 91 -43 99 -43 8 0 -26 20 -76 45 -49 25 -108 61 -130 80 l-40 35 733 0
732 0 0 -90 0 -90 -562 -1 c-310 -1 -545 -5 -523 -8 22 -4 275 -5 563 -3 l522
4 0 -86 c0 -47 -3 -86 -7 -87 -5 0 -21 -2 -38 -4 -20 -3 -47 6 -82 26 -68 37
-68 31 -1 -12 39 -25 60 -32 90 -30 35 2 38 0 38 -23 0 -32 -7 -32 -39 -3 -15
12 -11 5 9 -18 l35 -40 38 35 c99 91 254 172 404 211 67 17 112 19 363 19 253
0 296 2 364 20 124 32 227 92 327 190 72 72 93 100 132 180 25 52 55 133 67
180 22 84 22 90 16 839 -3 414 -8 756 -11 759 -3 3 -5 -18 -5 -46 l0 -51 -348
-3 -348 -3 -64 -52 c-151 -120 -302 -318 -351 -461 -10 -29 -34 -79 -53 -110
-50 -84 -68 -122 -81 -173 -7 -26 -32 -75 -57 -110 -55 -81 -105 -189 -133
-293 -18 -67 -26 -82 -43 -84 -12 -2 -22 -7 -22 -11 0 -5 -18 -29 -41 -54 -28
-32 -53 -50 -82 -58 -23 -7 -49 -21 -58 -32 -21 -25 -104 -33 -136 -12 -29 19
-59 19 -67 0 -11 -29 -56 -38 -128 -25 -52 9 -67 16 -71 31 -3 11 -15 23 -26
26 -12 3 -24 15 -27 28 -4 15 -28 33 -78 59 -40 20 -77 36 -82 36 -5 1 -22 12
-39 25 -27 22 -30 30 -27 72 9 131 7 148 -15 179 -12 17 -48 45 -80 62 -65 34
-197 166 -228 229 -11 21 -30 52 -42 69 -30 41 -38 107 -20 165 9 30 11 52 5
63 -5 9 -8 26 -6 38 3 21 9 22 92 24 95 3 135 -9 158 -46 11 -18 19 -15 148
52 74 39 137 72 139 74 1 1 -6 31 -17 66 -30 92 -34 121 -22 154 15 39 5 83
-25 116 -14 15 -25 38 -25 51 0 38 41 90 93 117 54 29 56 10 -18 200 -29 74
-65 168 -81 209 -33 85 -48 96 -155 107 -56 6 -68 11 -91 39 -27 32 -28 33
-13 75 24 68 20 95 -15 110 -41 17 -90 75 -90 107 0 14 12 46 26 71 l27 45
-32 26 c-34 28 -35 34 -10 118 l10 32 35 -15 c19 -8 56 -14 83 -13 52 2 118
-28 173 -79 24 -22 30 -23 59 -13 52 18 69 13 118 -35 73 -73 109 -87 231 -92
144 -5 234 -38 339 -125 52 -44 55 -45 107 -40 53 6 55 5 128 -50 71 -54 75
-55 110 -45 52 16 81 0 91 -48 14 -77 57 -136 111 -154 19 -6 48 -29 67 -50
23 -28 43 -40 72 -45 22 -4 57 -18 77 -31 44 -28 89 -31 130 -6 l30 17 39 -44
c28 -31 46 -66 62 -117 26 -86 40 -94 109 -61 l47 24 25 -26 c29 -30 59 -97
51 -111 -4 -6 -14 -10 -23 -10 -44 0 -257 -123 -284 -164 -16 -24 5 -17 35 11
52 50 229 143 271 143 8 0 17 4 20 8 10 16 -31 105 -64 139 -29 29 -35 31 -49
20 -24 -20 -79 -40 -95 -34 -7 3 -17 22 -21 43 -10 54 -51 132 -88 165 -37 34
-44 35 -77 9 -27 -21 -75 -26 -86 -9 -9 16 -85 49 -112 49 -13 0 -35 15 -54
36 -17 19 -53 46 -79 59 -57 30 -72 49 -95 127 -21 69 -39 82 -102 75 -41 -4
-50 -1 -112 44 -62 46 -71 49 -127 49 -53 0 -64 4 -99 33 -21 19 -49 39 -61
46 l-23 12 0 333 0 332 -30 63 c-17 34 -52 84 -78 110 -47 46 -132 101 -158
101 -17 0 -18 17 -1 23 10 5 -417 12 -450 8 -6 -1 -14 6 -17 16 -7 24 -43 216
-51 273 -4 25 -12 74 -20 110 -7 36 -16 88 -20 117 -7 50 -6 52 19 59 32 8 83
-12 96 -37 17 -32 12 -97 -10 -119 -11 -11 -20 -22 -20 -25 0 -3 50 -5 111 -5
l111 0 -21 34 c-29 47 -28 99 4 124 36 28 192 27 224 -2 24 -22 29 -84 9 -105
-11 -10 -10 -11 4 -6 43 17 34 99 -15 132 -28 19 -44 21 -120 19 -75 -2 -90
-6 -111 -26 -31 -28 -35 -53 -20 -107 l12 -43 -74 0 c-58 0 -74 3 -74 14 0 8
5 18 10 21 27 17 -1 114 -39 135 -31 16 -101 13 -108 -5z m117 -2960 c0 -2
-18 -14 -40 -25 l-40 -20 -20 20 c-11 11 -20 22 -20 25 0 3 27 5 60 5 33 0 60
-2 60 -5z m1476 -472 c8 -35 12 -38 52 -43 l42 -5 -30 -20 c-33 -22 -35 -30
-20 -71 6 -15 9 -28 7 -30 -2 -2 -19 7 -37 20 l-35 23 -34 -26 -34 -25 7 24
c4 14 10 32 12 41 3 10 -8 27 -26 43 l-32 26 41 0 c38 0 41 2 52 40 7 22 15
40 19 40 3 0 11 -17 16 -37z m533 -3 c11 -38 13 -40 54 -40 l42 0 -33 -22
c-33 -24 -34 -30 -15 -93 5 -17 1 -16 -31 8 l-36 28 -31 -26 c-37 -30 -43 -28
-29 9 15 41 13 49 -20 71 l-30 20 42 5 c39 5 43 8 51 43 5 20 12 37 16 37 4 0
13 -18 20 -40z m-250 -350 c8 -4 24 -6 37 -4 35 6 36 -9 3 -31 -30 -20 -31
-25 -13 -84 l7 -25 -30 22 c-38 27 -48 27 -80 2 -15 -11 -27 -19 -29 -17 -2 2
2 20 8 40 10 34 9 38 -15 58 -37 29 -34 39 13 39 30 0 40 4 40 16 0 8 5 25 12
37 11 21 12 21 22 -11 6 -18 18 -37 25 -42z m-1198 -278 c-37 -4 -52 5 -32 18
8 5 25 3 40 -3 l26 -12 -34 -3z m915 -15 c9 -28 16 -33 52 -37 l42 -5 -30 -20
c-33 -22 -34 -26 -21 -73 l10 -33 -39 22 -38 22 -28 -22 c-15 -12 -29 -20 -30
-18 -2 2 1 19 6 38 10 31 8 36 -21 61 l-32 27 44 3 c41 3 44 5 52 41 10 42 17
41 33 -6z m533 4 c11 -37 14 -40 54 -43 l42 -3 -33 -20 c-34 -21 -37 -35 -16
-89 7 -19 6 -19 -23 2 -38 27 -48 27 -80 2 -30 -24 -39 -20 -24 8 18 34 13 56
-19 77 l-30 20 42 5 c40 5 44 8 52 43 5 20 13 37 16 37 4 0 12 -18 19 -39z
m-1309 -96 l0 -85 -806 0 -805 0 -24 53 c-13 28 -26 67 -30 85 l-7 32 836 0
836 0 0 -85z m0 -185 l0 -90 -739 0 -740 0 -34 43 c-44 54 -87 117 -87 128 0
5 360 9 800 9 l800 0 0 -90z"/>
<path d="M1376 849 c-2 -8 -11 -36 -20 -63 -19 -58 -18 -56 -8 -56 10 0 45
120 38 128 -3 3 -8 -1 -10 -9z"/>
<path d="M1706 849 c-19 -59 -33 -119 -26 -119 10 0 45 119 37 126 -4 4 -9 1
-11 -7z"/>
<path d="M1122 837 c-7 -8 -9 -17 -5 -20 3 -4 11 1 18 10 13 17 35 10 35 -11
0 -7 -13 -25 -30 -41 -16 -16 -30 -32 -30 -37 0 -4 18 -8 40 -8 22 0 40 4 40
9 0 4 -11 6 -25 3 -32 -6 -32 5 1 35 33 30 30 67 -7 71 -14 2 -31 -3 -37 -11z"/>
<path d="M1214 836 c-3 -8 -3 -20 1 -25 3 -6 1 -20 -5 -31 -9 -16 -8 -25 1
-36 27 -32 90 -4 74 33 -4 10 -8 29 -9 43 -1 20 -7 26 -29 28 -17 2 -29 -2
-33 -12z m46 -16 c0 -21 -15 -27 -25 -10 -7 12 2 30 16 30 5 0 9 -9 9 -20z m5
-56 c0 -10 -8 -20 -17 -22 -18 -3 -26 27 -11 42 12 11 28 0 28 -20z"/>
<path d="M1450 825 c-21 -55 -2 -99 41 -93 22 3 24 7 24 58 0 53 -1 55 -27 58
-22 3 -30 -2 -38 -23z m55 -19 c10 -28 0 -56 -23 -64 -15 -5 -26 41 -18 74 8
31 28 27 41 -10z"/>
<path d="M1546 834 c-10 -26 -7 -28 13 -10 19 17 41 15 41 -4 0 -5 -13 -25
-30 -43 -16 -19 -30 -37 -30 -41 0 -3 18 -6 41 -6 23 0 38 4 34 10 -3 5 -12 7
-19 4 -25 -10 -26 13 -1 36 14 13 25 31 25 41 0 30 -63 41 -74 13z"/>
<path d="M1808 836 c-22 -16 -23 -26 -4 -26 10 0 16 -14 19 -42 3 -34 4 -30 5
20 1 34 1 62 0 62 -2 0 -11 -7 -20 -14z"/>
<path d="M1885 838 c-10 -35 -14 -84 -6 -96 5 -8 21 -12 37 -10 27 3 29 6 30
48 1 60 -4 70 -32 70 -14 0 -26 -6 -29 -12z m41 -9 c3 -6 2 -15 -2 -19 -12
-12 -38 5 -30 19 9 14 23 14 32 0z m1 -50 c14 -14 6 -39 -12 -39 -18 0 -28 17
-21 35 6 18 18 19 33 4z"/>
<path d="M1975 840 c-4 -6 -4 -14 0 -18 3 -3 10 0 15 8 7 12 12 12 22 2 9 -9
9 -15 0 -24 -9 -9 -8 -14 4 -22 9 -7 12 -18 8 -29 -7 -20 -30 -23 -37 -4 -2 6
-8 9 -12 5 -12 -11 5 -28 29 -28 30 0 51 24 41 47 -4 10 -8 29 -9 43 -1 19 -7
26 -28 28 -14 2 -29 -2 -33 -8z"/>
<path d="M2068 820 c-5 -31 5 -49 17 -30 9 15 23 12 34 -8 6 -11 6 -24 1 -33
-8 -12 -13 -12 -31 -1 -23 15 -39 8 -22 -9 6 -6 23 -9 39 -7 26 3 29 7 29 38
0 29 -4 36 -22 38 -31 5 -29 22 2 22 14 0 25 5 25 10 0 6 -15 10 -34 10 -30 0
-34 -3 -38 -30z"/>
<path d="M2383 4945 c-35 -35 -44 -83 -20 -103 9 -8 11 -1 9 31 -5 68 11 81
109 84 114 3 135 -2 150 -38 9 -23 9 -39 1 -67 -15 -48 -6 -54 13 -9 21 50 19
62 -14 99 -29 32 -31 33 -122 34 -93 2 -93 2 -126 -31z"/>
<path d="M2830 4972 c-8 -3 -25 -16 -37 -29 -27 -28 -31 -94 -8 -113 18 -15
18 -10 5 25 -12 32 9 91 37 98 10 3 56 5 102 5 75 0 86 -2 107 -23 26 -26 31
-64 12 -98 -10 -19 -9 -20 4 -9 36 29 27 95 -17 132 -16 14 -175 23 -205 12z"/>
<path d="M3213 4958 c-39 -44 -47 -112 -15 -132 6 -4 6 5 -1 23 -23 61 39 130
104 116 34 -8 33 0 14 -98 -17 -87 -19 -125 -6 -92 13 31 33 184 26 195 -3 6
-28 10 -54 10 -37 0 -52 -5 -68 -22z"/>
<path d="M3123 4801 c-50 -4 -95 -10 -99 -14 -4 -4 43 -7 106 -7 99 0 111 2
100 15 -7 8 -13 14 -14 13 0 -1 -42 -4 -93 -7z"/>
<path d="M2288 4783 c6 -2 18 -2 25 0 6 3 1 5 -13 5 -14 0 -19 -2 -12 -5z"/>
<path d="M2663 4783 c15 -2 37 -2 50 0 12 2 0 4 -28 4 -27 0 -38 -2 -22 -4z"/>
<path d="M2753 4783 c9 -2 23 -2 30 0 6 3 -1 5 -18 5 -16 0 -22 -2 -12 -5z"/>
<path d="M3287 4718 c-3 -18 -1 -37 4 -42 5 -6 9 7 9 32 0 50 -6 54 -13 10z"/>
<path d="M3247 4483 c-4 -3 -7 -18 -7 -31 0 -31 7 -26 14 11 5 28 4 31 -7 20z"/>
<path d="M3230 4405 c0 -13 -33 -15 -232 -15 -213 0 -231 -1 -204 -15 24 -13
135 -15 830 -13 756 3 767 3 204 5 l-597 3 9 25 c6 16 6 25 0 25 -6 0 -10 -7
-10 -15z"/>
<path d="M2766 4120 c-46 -9 -86 -49 -86 -86 0 -34 39 -70 91 -84 68 -19 89
-29 96 -46 15 -40 -68 -47 -93 -8 -14 21 -23 25 -58 22 -52 -4 -57 -25 -18
-69 28 -31 35 -34 104 -37 92 -5 132 12 155 66 13 32 13 39 0 67 -17 35 -59
59 -122 70 -52 10 -69 23 -54 41 16 20 46 17 69 -6 13 -13 33 -20 60 -20 34 0
40 3 40 20 0 25 -46 70 -70 70 -10 0 -30 2 -46 4 -16 3 -47 1 -68 -4z"/>
<path d="M3020 3965 l0 -155 140 0 140 0 0 35 0 35 -90 0 -90 0 0 30 0 29 78
3 77 3 0 30 0 30 -77 3 c-75 3 -78 4 -78 27 0 25 1 25 85 25 l85 0 0 30 0 30
-135 0 -135 0 0 -155z"/>
<path d="M2394 3011 c-96 -25 -206 -119 -250 -215 -69 -152 -54 -261 64 -456
22 -37 72 -140 125 -257 5 -11 6 -27 2 -35 -5 -7 -5 -10 0 -6 12 11 36 -42 30
-64 -4 -10 -10 -18 -14 -18 -4 0 -8 -14 -9 -30 0 -17 -3 -38 -7 -48 -7 -21
-75 -69 -110 -78 -22 -5 -25 -3 -25 19 0 26 22 52 34 40 4 -4 4 1 0 10 -6 16
-8 16 -24 2 -32 -29 -71 -114 -81 -177 -5 -35 -12 -76 -15 -93 l-6 -30 21 27
c11 14 21 39 21 55 0 15 4 33 8 40 4 6 7 -11 7 -37 0 -27 2 -50 5 -53 3 -3 20
-8 39 -12 31 -7 33 -5 26 11 -20 45 -16 89 12 143 15 30 39 61 52 70 23 15 23
15 16 -19 -4 -19 -11 -37 -16 -38 -5 -2 -7 -8 -3 -13 3 -5 1 -24 -5 -42 -8
-24 -7 -51 4 -107 l14 -75 -6 67 -5 66 43 -10 c57 -13 261 -13 317 0 l44 10
-6 -61 -5 -62 14 70 c10 50 11 79 4 102 -6 18 -8 37 -4 43 3 5 2 10 -3 10 -10
0 -25 60 -17 68 10 10 47 -34 72 -86 24 -51 27 -92 9 -133 -5 -12 0 -14 29
-11 37 4 40 10 48 77 3 23 4 21 6 -11 0 -23 8 -47 16 -54 22 -18 25 -10 15 35
-5 22 -10 52 -10 68 0 36 -33 105 -71 148 -17 19 -24 23 -15 9 19 -29 21 -70
4 -70 -22 0 -118 64 -124 82 -3 10 -6 31 -6 48 -1 16 -5 30 -9 30 -4 0 -11 9
-14 21 -5 15 1 30 22 52 15 17 20 25 11 18 -21 -16 -23 -8 -6 22 7 12 13 27
14 33 4 22 89 193 140 279 64 109 78 160 72 269 -3 67 -10 95 -34 141 -43 86
-105 149 -181 187 -58 28 -77 33 -157 35 -50 1 -105 -1 -122 -6z m86 -21 c8
-15 7 -27 -3 -47 l-14 -26 -17 26 c-14 20 -15 30 -6 46 14 26 26 27 40 1z m30
10 c0 -5 -4 -10 -10 -10 -5 0 -10 5 -10 10 0 6 5 10 10 10 6 0 10 -4 10 -10z
m50 -10 c8 -15 7 -27 -3 -47 l-14 -26 -17 26 c-14 20 -15 30 -6 46 14 26 26
27 40 1z m-153 -15 c2 -6 -3 -20 -12 -30 -14 -20 -15 -20 -34 5 -14 18 -16 27
-8 32 16 11 50 6 54 -7z m240 7 c10 -6 9 -13 -3 -30 -8 -12 -18 -22 -22 -22
-12 0 -33 40 -27 50 7 12 35 13 52 2z m-330 -42 c-11 -16 -17 -18 -22 -9 -5 7
-1 18 10 25 25 18 31 10 12 -16z m393 -2 c0 -19 -18 -14 -28 7 -11 23 -10 24
8 13 11 -7 20 -16 20 -20z m-272 -14 c10 -20 9 -31 -1 -50 l-14 -26 -17 27
c-15 23 -16 31 -5 51 16 30 23 30 37 -2z m80 1 c12 -25 -1 -75 -19 -75 -15 0
-26 55 -16 78 13 28 21 28 35 -3z m82 -46 c-15 -36 -23 -37 -39 -3 -10 22 -9
31 5 51 l16 25 15 -22 c12 -17 13 -26 3 -51z m78 -8 l-15 -22 -17 26 c-16 25
-16 28 0 53 l17 26 15 -31 c13 -27 13 -33 0 -52z m-318 54 c10 -12 10 -21 0
-45 -15 -37 -23 -38 -38 -5 -9 20 -9 30 0 45 15 24 22 25 38 5z m-74 -10 c4
-9 -1 -29 -9 -47 l-15 -31 -15 30 c-15 27 -14 31 1 46 20 21 31 21 38 2z m468
-3 c15 -17 15 -22 2 -47 l-14 -27 -16 30 c-15 29 -13 62 4 62 4 0 14 -8 24
-18z m-515 -65 c9 -26 8 -41 -3 -67 l-14 -34 -21 43 c-21 40 -21 44 -6 67 21
32 31 30 44 -9z m81 -53 c-14 -42 -24 -43 -40 -5 -10 24 -9 35 5 62 l17 33 15
-28 c11 -22 12 -34 3 -62z m80 56 c10 -24 10 -36 0 -60 -16 -39 -23 -38 -38 4
-10 26 -10 40 -1 60 16 34 24 33 39 -4z m79 1 c10 -22 9 -35 -2 -62 l-15 -34
-15 34 c-11 26 -12 42 -5 63 13 36 22 35 37 -1z m80 1 c9 -22 9 -35 -2 -62
l-15 -34 -17 33 c-14 28 -15 38 -5 62 15 36 24 37 39 1z m81 -2 c10 -24 10
-36 -3 -67 l-15 -38 -17 37 c-15 31 -16 41 -5 67 16 39 24 39 40 1z m166 5
c15 -23 15 -28 0 -60 -21 -43 -31 -44 -44 -5 -8 20 -7 38 1 60 14 37 22 38 43
5z m-84 -10 c8 -18 8 -32 -2 -55 -16 -38 -23 -38 -37 1 -9 22 -9 37 -1 55 14
31 25 30 40 -1z m-526 -81 c17 -40 9 -84 -15 -84 -26 0 -46 64 -31 101 14 34
27 29 46 -17z m164 -4 c16 -38 6 -80 -19 -80 -25 0 -33 36 -19 82 12 42 20 42
38 -2z m90 -32 c0 -29 -12 -48 -30 -48 -26 0 -33 42 -13 86 l16 39 13 -30 c7
-16 13 -38 14 -47z m68 38 c16 -43 6 -86 -18 -86 -23 0 -31 41 -17 86 13 43
20 43 35 0z m78 -2 c19 -44 11 -84 -15 -84 -25 0 -35 43 -19 86 6 19 14 34 16
34 1 0 10 -16 18 -36z m90 -59 c-4 -16 -13 -25 -26 -25 -28 0 -35 36 -14 82
l18 39 14 -35 c8 -20 11 -47 8 -61z m163 67 c9 -22 9 -35 -4 -65 -8 -20 -11
-37 -6 -37 5 0 13 10 16 21 14 42 24 -4 21 -86 -4 -101 -24 -146 -129 -292
-45 -62 -82 -111 -83 -110 -2 1 24 78 57 171 33 93 58 173 56 179 -2 6 -11
-12 -21 -39 -9 -27 -25 -71 -36 -99 -10 -27 -38 -106 -62 -174 -39 -111 -58
-144 -74 -128 -3 3 9 61 26 129 85 329 85 328 54 328 -10 0 -14 13 -14 50 l0
50 40 0 c39 0 39 1 30 26 -7 19 -7 36 2 60 15 42 22 43 39 3 9 -24 10 -39 2
-60 -11 -27 0 -43 10 -16 4 9 8 8 16 -3 15 -22 24 -5 11 20 -10 18 -9 30 6 61
20 46 28 48 43 11z m-570 -17 c15 -42 7 -75 -19 -75 -23 0 -33 39 -19 79 14
40 22 39 38 -4z m-129 -66 c0 -5 -7 -9 -15 -9 -15 0 -20 12 -9 23 8 8 24 -1
24 -14z m80 1 c0 -5 -5 -10 -11 -10 -5 0 -7 5 -4 10 3 6 8 10 11 10 2 0 4 -4
4 -10z m240 0 c0 -5 -5 -10 -11 -10 -5 0 -7 5 -4 10 3 6 8 10 11 10 2 0 4 -4
4 -10z m-136 -26 c23 -9 20 -51 -4 -59 -11 -3 -20 -13 -20 -21 0 -8 -7 -14
-15 -14 -11 0 -15 11 -15 43 0 56 12 67 54 51z m99 -14 l14 -21 6 21 c6 22 51
29 63 9 5 -8 9 -8 14 1 10 17 30 3 30 -21 0 -27 17 -24 24 6 4 14 11 25 17 25
7 0 9 -10 5 -25 -21 -81 -43 -95 -59 -36 -8 31 -9 32 -22 15 -9 -14 -10 -23
-3 -32 6 -7 8 -16 4 -20 -4 -4 -16 4 -27 17 -19 23 -19 23 -19 2 0 -12 -6 -21
-15 -21 -8 0 -15 8 -15 18 -1 16 -1 16 -11 0 -12 -21 -49 -24 -67 -6 -17 17
-15 54 4 72 21 22 40 20 57 -4z m207 -36 c0 -24 -4 -44 -10 -44 -5 0 -10 23
-10 51 0 31 4 48 10 44 6 -3 10 -26 10 -51z m-363 -234 c34 -96 62 -179 62
-184 1 -16 -170 235 -190 278 -10 22 -19 51 -19 64 0 21 4 23 43 20 l42 -3 62
-175z m33 177 c0 -2 25 -100 55 -220 30 -119 55 -219 55 -222 0 -15 -32 -2
-40 18 -14 34 -150 416 -150 422 0 3 18 5 40 5 22 0 40 -1 40 -3z m94 -24 c3
-16 15 -82 26 -148 12 -66 28 -150 36 -187 18 -87 18 -90 -8 -86 -20 3 -27 24
-75 213 -29 116 -53 216 -53 223 0 7 13 12 34 12 30 0 35 -4 40 -27z m85 -170
l-1 -198 -23 120 c-13 66 -28 145 -34 176 -18 92 -16 99 24 99 l35 0 -1 -197z
m91 180 c0 -16 -55 -325 -64 -363 -2 -8 -4 74 -5 183 l-1 197 35 0 c27 0 35
-4 35 -17z m90 4 c0 -7 -7 -40 -16 -72 -9 -33 -32 -127 -53 -210 -33 -133 -40
-150 -59 -153 -26 -4 -26 -5 -8 89 8 41 22 115 31 164 38 212 32 195 71 195
21 0 34 -5 34 -13z m20 -372 c-22 -43 -41 -83 -43 -89 -2 -5 -9 -6 -15 -2 -9
5 -9 13 -1 29 19 36 93 147 96 144 1 -2 -15 -39 -37 -82z m-365 8 c42 -63 56
-103 37 -103 -4 0 -27 38 -50 85 -23 47 -40 85 -37 85 2 0 25 -30 50 -67z
m110 -134 c8 -46 0 -63 -13 -28 -22 59 -24 69 -9 69 10 0 18 -15 22 -41z m53
-7 c4 -47 -13 -57 -28 -16 -16 40 -13 66 8 62 12 -2 18 -15 20 -46z m62 29 c0
-29 -18 -71 -30 -71 -11 0 -14 73 -3 83 13 14 33 6 33 -12z m44 -3 c-16 -53
-27 -73 -31 -60 -9 24 7 82 23 82 11 0 13 -6 8 -22z m-201 -15 c2 -10 8 -26
12 -37 7 -16 6 -17 -13 -7 -14 7 -22 21 -22 36 0 29 15 33 23 8z m237 -8 c0
-14 -30 -49 -36 -42 -2 2 1 18 7 35 11 31 29 35 29 7z m-228 -85 c-2 -16 -8
-30 -13 -30 -5 0 -6 -6 -3 -13 3 -8 -3 -20 -12 -28 -15 -12 -16 -12 -11 6 3
11 9 37 13 58 8 45 33 52 26 7z m222 -6 c4 -19 10 -42 13 -51 4 -11 2 -14 -8
-11 -8 3 -13 13 -13 22 1 9 -2 16 -6 16 -4 0 -10 14 -12 30 -7 44 18 38 26 -6z
m-42 -9 c4 -16 1 -24 -6 -22 -6 2 -11 8 -11 13 0 5 -3 14 -7 20 -8 13 1 26 12
19 4 -3 10 -16 12 -30z m-141 12 c-1 -4 -1 -14 -1 -22 0 -8 -6 -15 -14 -15 -9
0 -12 8 -8 25 4 22 25 33 23 12z m49 -142 l0 -105 -26 0 -27 0 8 93 c6 87 16
117 36 117 5 0 9 -47 9 -105z m48 93 c6 -7 13 -55 17 -105 l8 -93 -27 0 -26 0
0 105 c0 101 6 120 28 93z m-102 -75 c-14 -116 -16 -123 -42 -123 -13 0 -24 6
-24 13 0 27 31 141 42 154 22 27 30 13 24 -44z m153 43 c9 -11 40 -131 41
-158 0 -5 -11 -8 -24 -8 -26 0 -28 7 -42 123 -6 57 2 71 25 43z m-219 -77 c-6
-30 -13 -64 -16 -76 -6 -28 -44 -32 -44 -5 0 10 3 22 7 26 8 7 9 12 11 53 2
20 41 68 49 59 2 -2 -1 -27 -7 -57z m300 2 c5 -19 8 -37 6 -39 -2 -2 2 -15 10
-30 12 -24 12 -27 -2 -30 -30 -7 -41 7 -48 60 -3 29 -9 64 -12 76 -6 22 -5 23
15 10 12 -7 26 -28 31 -47z"/>
<path d="M2310 2629 c0 -5 5 -7 10 -4 6 3 10 8 10 11 0 2 -4 4 -10 4 -5 0 -10
-5 -10 -11z"/>
<path d="M2391 2641 c-18 -11 -10 -45 12 -49 12 -3 17 3 17 22 0 29 -10 38
-29 27z"/>
<path d="M2488 2633 c7 -3 16 -2 19 1 4 3 -2 6 -13 5 -11 0 -14 -3 -6 -6z"/>
<path d="M2727 1978 c-33 -12 -26 -28 11 -28 20 0 23 3 13 9 -11 7 -10 10 5
13 10 2 15 6 9 9 -5 4 -22 2 -38 -3z"/>
<path d="M2243 1973 c9 -2 15 -9 12 -14 -4 -5 3 -9 14 -9 11 0 22 4 25 9 7 11
-18 21 -47 20 -17 -1 -18 -2 -4 -6z"/>
<path d="M2290 1930 c-8 -5 -12 -12 -9 -15 4 -3 12 1 19 10 14 17 11 19 -10 5z"/>
<path d="M2697 1929 c7 -7 15 -10 18 -7 3 3 -2 9 -12 12 -14 6 -15 5 -6 -5z"/>
<path d="M2674 1468 c-9 -51 -10 -53 -49 -61 -52 -11 -272 -4 -285 9 -6 6 -14
30 -19 55 -5 24 -9 34 -10 23 -1 -12 2 -36 5 -53 5 -25 13 -33 43 -41 47 -13
235 -13 283 0 34 10 37 13 43 61 9 67 1 72 -11 7z"/>
<path d="M2211 246 c10 -9 89 -46 89 -41 0 5 -75 45 -86 45 -4 0 -5 -2 -3 -4z"/>
</g>
</svg>
